<svg xmlns="http://www.w3.org/2000/svg" xmlns:xlink="http://www.w3.org/1999/xlink" viewBox="0 0 611.58 233.16"><defs><style>.cls-1{fill:none;}.cls-2{isolation:isolate;}.cls-3{fill:#d31e41;}.cls-4{mix-blend-mode:overlay;}.cls-5{clip-path:url(#clip-path);}.cls-6{fill:#454b52;}.cls-7{fill:#0a0c0d;}.cls-8{fill:#42484f;}.cls-9{fill:#767d81;}.cls-10{fill:#474c53;}.cls-11{fill:#666c73;}.cls-12{fill:#434950;}.cls-13{fill:#32373b;}.cls-14{fill:#393d44;}.cls-15{clip-path:url(#clip-path-2);}.cls-16{fill:#108fcf;}.cls-17{clip-path:url(#clip-path-4);}.cls-18{fill:#f7981d;}.cls-19{fill:#fff;}.cls-20{clip-path:url(#clip-path-6);}.cls-21{fill:#666667;}</style><clipPath id="clip-path"><rect class="cls-1" x="24.66" y="50.68" width="148.21" height="140.56"/></clipPath><clipPath id="clip-path-2"><rect class="cls-1" x="86.91" y="15.79" width="148.21" height="140.56"/></clipPath><clipPath id="clip-path-4"><rect class="cls-1" x="86.91" y="78.13" width="148.21" height="140.57"/></clipPath><clipPath id="clip-path-6"><rect class="cls-1" x="74.33" y="43.14" width="150.87" height="142.43"/></clipPath></defs><title>Logo AdMobilize</title><g class="cls-2"><g id="Layer_1" data-name="Layer 1"><polygon class="cls-3" points="69.51 50.68 68.7 52.32 46.99 96.53 126.82 65.16 69.51 50.68"/><polygon class="cls-3" points="126.82 65.16 172.87 126.89 141.3 69.38 126.82 65.16"/><polygon class="cls-3" points="116.16 148.41 172.87 126.9 126.82 65.16 116.16 148.41"/><polygon class="cls-3" points="116.16 148.41 46.99 96.53 126.82 65.16 116.16 148.41"/><polygon class="cls-3" points="24.66 114.43 46.99 96.53 49.2 176.36 24.66 114.43"/><polygon class="cls-3" points="116.16 148.41 46.99 96.53 49.2 176.36 116.16 148.41"/><polyline class="cls-3" points="116.16 148.41 125.41 191.25 49.2 176.36"/><polygon class="cls-3" points="116.16 148.41 125.41 191.25 172.87 126.9 116.16 148.41"/><polygon class="cls-3" points="24.66 114.43 46.99 96.53 69.51 50.68 24.66 114.43"/><g class="cls-4"><g class="cls-5"><polygon class="cls-6" points="69.51 50.68 68.7 52.32 46.99 96.53 126.82 65.16 69.51 50.68"/><polygon class="cls-7" points="126.82 65.16 172.87 126.89 141.3 69.38 126.82 65.16"/><polygon class="cls-8" points="116.16 148.41 172.87 126.9 126.82 65.16 116.16 148.41"/><polygon class="cls-9" points="116.16 148.41 46.99 96.53 126.82 65.16 116.16 148.41"/><polygon class="cls-10" points="24.66 114.43 46.99 96.53 49.2 176.36 24.66 114.43"/><polygon class="cls-11" points="116.16 148.41 46.99 96.53 49.2 176.36 116.16 148.41"/><polyline class="cls-12" points="116.16 148.41 125.41 191.25 49.2 176.36"/><polygon class="cls-13" points="116.16 148.41 125.41 191.25 172.87 126.9 116.16 148.41"/><polygon class="cls-14" points="24.66 114.43 46.99 96.53 69.51 50.68 24.66 114.43"/></g></g><g class="cls-4"><g class="cls-15"><polygon class="cls-16" points="131.75 15.79 130.94 17.43 109.23 61.64 189.06 30.27 131.75 15.79"/><polygon class="cls-16" points="189.06 30.27 235.11 92 203.54 34.49 189.06 30.27"/><polygon class="cls-16" points="178.4 113.52 235.12 92 189.06 30.27 178.4 113.52"/><polygon class="cls-16" points="178.4 113.52 109.23 61.64 189.06 30.27 178.4 113.52"/><polygon class="cls-16" points="86.91 79.54 109.23 61.64 111.44 141.47 86.91 79.54"/><polygon class="cls-16" points="178.4 113.52 109.23 61.64 111.44 141.47 178.4 113.52"/><polyline class="cls-16" points="178.4 113.52 187.66 156.35 111.44 141.47"/><polygon class="cls-16" points="178.4 113.52 187.66 156.35 235.12 92 178.4 113.52"/><polygon class="cls-16" points="86.91 79.54 109.23 61.64 131.75 15.79 86.91 79.54"/><g class="cls-4"><g class="cls-15"><polygon class="cls-6" points="131.75 15.79 130.94 17.43 109.23 61.64 189.06 30.27 131.75 15.79"/><polygon class="cls-7" points="189.06 30.27 235.11 92 203.54 34.49 189.06 30.27"/><polygon class="cls-8" points="178.4 113.52 235.12 92 189.06 30.27 178.4 113.52"/><polygon class="cls-9" points="178.4 113.52 109.23 61.64 189.06 30.27 178.4 113.52"/><polygon class="cls-10" points="86.91 79.54 109.23 61.64 111.44 141.47 86.91 79.54"/><polygon class="cls-11" points="178.4 113.52 109.23 61.64 111.44 141.47 178.4 113.52"/><polyline class="cls-12" points="178.4 113.52 187.66 156.35 111.44 141.47"/><polygon class="cls-13" points="178.4 113.52 187.66 156.35 235.12 92 178.4 113.52"/><polygon class="cls-14" points="86.91 79.54 109.23 61.64 131.75 15.79 86.91 79.54"/></g></g></g></g><g class="cls-4"><g class="cls-17"><polygon class="cls-18" points="131.75 78.13 130.94 79.77 109.23 123.98 189.06 92.61 131.75 78.13"/><polygon class="cls-18" points="189.06 92.61 235.11 154.34 203.54 96.83 189.06 92.61"/><polygon class="cls-18" points="178.4 175.86 235.12 154.35 189.06 92.61 178.4 175.86"/><polygon class="cls-18" points="178.4 175.86 109.23 123.98 189.06 92.61 178.4 175.86"/><polygon class="cls-18" points="86.91 141.88 109.23 123.98 111.44 203.81 86.91 141.88"/><polygon class="cls-18" points="178.4 175.86 109.23 123.98 111.44 203.81 178.4 175.86"/><polyline class="cls-18" points="178.4 175.86 187.66 218.7 111.44 203.81"/><polygon class="cls-18" points="178.4 175.86 187.66 218.7 235.12 154.35 178.4 175.86"/><polygon class="cls-18" points="86.91 141.88 109.23 123.98 131.75 78.13 86.91 141.88"/><g class="cls-4"><g class="cls-17"><polygon class="cls-6" points="131.75 78.13 130.94 79.77 109.23 123.98 189.06 92.61 131.75 78.13"/><polygon class="cls-7" points="189.06 92.61 235.11 154.34 203.54 96.83 189.06 92.61"/><polygon class="cls-8" points="178.4 175.86 235.12 154.35 189.06 92.61 178.4 175.86"/><polygon class="cls-9" points="178.4 175.86 109.23 123.98 189.06 92.61 178.4 175.86"/><polygon class="cls-10" points="86.91 141.88 109.23 123.98 111.44 203.81 86.91 141.88"/><polygon class="cls-11" points="178.4 175.86 109.23 123.98 111.44 203.81 178.4 175.86"/><polyline class="cls-12" points="178.4 175.86 187.66 218.7 111.44 203.81"/><polygon class="cls-13" points="178.4 175.86 187.66 218.7 235.12 154.35 178.4 175.86"/><polygon class="cls-14" points="86.91 141.88 109.23 123.98 131.75 78.13 86.91 141.88"/></g></g></g></g><path class="cls-19" d="M202.2,92.73a23.94,23.94,0,0,1,12.34,9.18,32.4,32.4,0,0,1,5.15,11.68,55.85,55.85,0,0,1,1.38,12q0,14.43-5.8,24.44-7.86,13.5-24.26,13.49H159.82V91.16H191a37.82,37.82,0,0,1,11.19,1.57m-27.7,11v47.21h13.95q10.73,0,14.94-10.55a37,37,0,0,0,2.32-13.79q0-11-3.47-17t-13.79-5.92Z"/><polygon class="cls-19" points="127.68 91.16 110.34 91.16 84.16 163.49 100.19 163.49 105.16 148.27 105.24 148.27 109.41 134.94 109.33 134.94 118.85 106.08 128.12 134.94 128.04 134.94 132.1 148.27 132.17 148.27 137.01 163.49 153.63 163.49 127.68 91.16"/><g class="cls-4"><g class="cls-20"><path class="cls-19" d="M225.2,120.72,193.06,62.18l-14.74-4.3L120,43.14,74.33,108l24.75,62.48h0l78.3,15.06ZM191.9,63.61l20,36.44L182.73,60.94ZM100.52,90.28l75.75-29.76-10.12,79Zm63.54,51.92-63.12,26.35L98.85,93.29Zm13.69,40-8.31-38.48,50.95-19.33Zm1.73-119.9,43,57.65-53,20.09ZM120.69,45.56l.21-.43,51.86,13.1L100.52,86.62Zm-4.56,5L95.69,88.72l-13,10.46Zm-39.75,58L95.44,93.29l1.89,68.18Zm25.12,61.31L167,143.48l8.63,39.94Z"/></g></g><polygon class="cls-21" points="286.18 127.68 263.24 94.29 254.88 94.29 254.88 162.8 263.78 162.8 263.78 110.85 286.18 142.92 308.57 110.85 308.57 162.8 317.58 162.8 317.58 94.29 309.11 94.29 286.18 127.68"/><path class="cls-21" d="M351.92,109.24c-9.25,0-24.78,3.53-24.78,27.18s15.53,27.19,24.78,27.19,24.78-3.54,24.78-27.19-15.53-27.18-24.78-27.18m0,45.76c-10.83,0-15.87-5.9-15.87-18.58s5-18.58,15.87-18.58,15.87,5.73,15.87,18.58S362.9,155,351.92,155"/><path class="cls-21" d="M406,109.24a43,43,0,0,0-11.75,1.65V91.27h-9v55.19c0,2.86,1,17.15,21.46,17.15,8.84,0,23.67-3.59,23.67-27.59,0-17.27-8.65-26.78-24.37-26.78m.7,45.76c-7.91,0-12.45-3-12.45-8.34V120A34.29,34.29,0,0,1,406,117.94c10.77,0,15.37,5.41,15.37,18.08,0,17-8.37,19-14.67,19"/><rect class="cls-21" x="439.76" y="110.14" width="8.91" height="52.66"/><rect class="cls-21" x="439.46" y="93.68" width="9.51" height="11.42"/><rect class="cls-21" x="460.63" y="91.37" width="9.01" height="71.43"/><rect class="cls-21" x="481.31" y="93.68" width="9.51" height="11.42"/><rect class="cls-21" x="481.61" y="110.14" width="8.91" height="52.66"/><path class="cls-21" d="M537.89,117.11v-7H499.28v8.51h26.53q-13.54,18.27-26.95,36.56l-.38.53v7.06h39.81v-8.4H510.44Z"/><path class="cls-21" d="M566.11,109.34c-17.45,0-23.67,14.51-23.67,28.09,0,22.69,15.71,26.08,25.08,26.08,6.27,0,12.67-1.24,17.1-3.3l1.15-.54v-9.76l-3,1.62c-3.6,2-9.17,3.17-14.89,3.17-9.42,0-14.34-3.61-15.49-11.35l-.14-.47a9.4,9.4,0,0,1-.47-1.55H587l2,.17v-2a21.26,21.26,0,0,0,.11-2.79c0-13.24-6-27.38-23-27.38m-.3,8.7c11.41,0,13.65,10.08,14.07,14.88H551.69c1-9.87,5.7-14.88,14.12-14.88"/></g></g></svg>